<svg width="24" height="24" viewBox="0 0 24 24" fill="none" xmlns="http://www.w3.org/2000/svg">
<g clip-path="url(#clip0_6_107)">
<circle cx="12" cy="12" r="12" fill="#444"/>
<path d="M7.24842 17V10.4545H8.46979V17H7.24842ZM7.86945 9.36364C7.63139 9.36364 7.4261 9.29688 7.25359 9.16335C7.08453 9.02983 7 8.86932 7 8.68182C7 8.49432 7.08453 8.33381 7.25359 8.20028C7.4261 8.06676 7.63139 8 7.86945 8C8.10752 8 8.31108 8.06676 8.48014 8.20028C8.65265 8.33381 8.73891 8.49432 8.73891 8.68182C8.73891 8.86932 8.65265 9.02983 8.48014 9.16335C8.31108 9.29688 8.10752 9.36364 7.86945 9.36364Z" fill="white"/>
<path d="M11.9282 13.0625V17H10.7068V10.4545H11.8868V11.4773H11.9903C12.1766 11.1449 12.4595 10.8778 12.839 10.6761C13.2186 10.4716 13.7085 10.3693 14.3088 10.3693C14.8471 10.3693 15.318 10.4602 15.7217 10.642C16.1254 10.821 16.4393 11.0938 16.6636 11.4602C16.8879 11.8239 17 12.2841 17 12.8409V17H15.7786V12.9091C15.7786 12.3949 15.6165 11.9943 15.2921 11.7074C14.9678 11.4176 14.5227 11.2727 13.9569 11.2727C13.567 11.2727 13.2186 11.3423 12.9115 11.4815C12.6079 11.6207 12.3681 11.8239 12.1921 12.0909C12.0162 12.358 11.9282 12.6818 11.9282 13.0625Z" fill="white"/>
</g>
<defs>
<clipPath id="clip0_6_107">
<rect width="24" height="24" fill="white"/>
</clipPath>
</defs>
</svg>
